<svg xmlns="http://www.w3.org/2000/svg" viewBox="0 0 512 512" width="512" height="512">
  <!-- Rounded square background -->
  <rect width="512" height="512" rx="108" ry="108" fill="#4ade80"/>

  <!-- Mop head (the cloth/rag part, zoomed in) -->
  <!-- Main mop base -->
  <rect x="96" y="186" width="320" height="64" rx="20" ry="20" fill="#0a0a0a"/>

  <!-- Mop strands (the cencio fringes hanging down) -->
  <path d="M116 250 Q112 310 104 370 Q100 394 108 394 Q116 394 120 368 Q126 330 130 250" fill="#0a0a0a" opacity="0.9"/>
  <path d="M148 250 Q145 308 138 362 Q134 390 142 390 Q150 390 154 358 Q160 322 162 250" fill="#0a0a0a" opacity="0.85"/>
  <path d="M180 250 Q176 316 170 374 Q166 402 174 402 Q182 402 186 370 Q192 332 194 250" fill="#0a0a0a" opacity="0.9"/>
  <path d="M212 250 Q209 318 202 378 Q198 408 206 408 Q214 408 218 374 Q224 336 226 250" fill="#0a0a0a" opacity="0.85"/>
  <path d="M244 250 Q241 322 234 384 Q230 414 238 414 Q246 414 250 380 Q256 340 258 250" fill="#0a0a0a" opacity="0.9"/>
  <path d="M276 250 Q273 318 266 378 Q262 408 270 408 Q278 408 282 374 Q288 336 290 250" fill="#0a0a0a" opacity="0.85"/>
  <path d="M308 250 Q305 308 298 362 Q294 390 302 390 Q310 390 314 358 Q320 322 322 250" fill="#0a0a0a" opacity="0.9"/>
  <path d="M340 250 Q337 304 330 350 Q326 378 334 378 Q342 378 346 346 Q352 312 354 250" fill="#0a0a0a" opacity="0.85"/>
  <path d="M372 250 Q369 296 362 336 Q358 362 366 362 Q374 362 378 332 Q384 300 386 250" fill="#0a0a0a" opacity="0.8"/>

  <!-- Small handle stub on top (just a hint, not the full stick) -->
  <rect x="234" y="120" width="44" height="74" rx="12" ry="12" fill="#0a0a0a"/>
</svg>
