<svg xmlns="http://www.w3.org/2000/svg" viewBox="0 0 192 192" width="192" height="192">
  <!-- Rounded square background -->
  <rect width="192" height="192" rx="40" ry="40" fill="#4ade80"/>

  <!-- Mop head (the cloth/rag part, zoomed in) -->
  <!-- Main mop base -->
  <rect x="36" y="70" width="120" height="24" rx="8" ry="8" fill="#0a0a0a"/>

  <!-- Mop strands (the cencio fringes hanging down) -->
  <path d="M44 94 Q42 120 38 140 Q36 148 40 148 Q44 148 46 138 Q48 126 50 94" fill="#0a0a0a" opacity="0.9"/>
  <path d="M56 94 Q55 118 52 136 Q50 146 54 146 Q58 146 60 134 Q62 120 62 94" fill="#0a0a0a" opacity="0.85"/>
  <path d="M68 94 Q66 122 64 140 Q62 150 66 150 Q70 150 72 138 Q74 124 74 94" fill="#0a0a0a" opacity="0.9"/>
  <path d="M80 94 Q79 120 76 142 Q74 152 78 152 Q82 152 84 140 Q86 126 86 94" fill="#0a0a0a" opacity="0.85"/>
  <path d="M92 94 Q91 124 88 144 Q86 154 90 154 Q94 154 96 142 Q98 128 98 94" fill="#0a0a0a" opacity="0.9"/>
  <path d="M104 94 Q103 120 100 140 Q98 150 102 150 Q106 150 108 138 Q110 124 110 94" fill="#0a0a0a" opacity="0.85"/>
  <path d="M116 94 Q115 118 112 136 Q110 146 114 146 Q118 146 120 134 Q122 120 122 94" fill="#0a0a0a" opacity="0.9"/>
  <path d="M128 94 Q127 116 124 132 Q122 142 126 142 Q130 142 132 130 Q134 118 134 94" fill="#0a0a0a" opacity="0.85"/>
  <path d="M140 94 Q139 112 136 128 Q134 138 138 138 Q142 138 144 126 Q146 114 146 94" fill="#0a0a0a" opacity="0.8"/>

  <!-- Small handle stub on top (just a hint, not the full stick) -->
  <rect x="88" y="46" width="16" height="28" rx="4" ry="4" fill="#0a0a0a"/>
</svg>
